HIERARCHY
ROOT SpineBase
{
  OFFSET 0.000000 0.000000 0.000000
  CHANNELS 6 Xposition Yposition Zposition Zrotation Xrotation Yrotation
  JOINT SpineMid
  {
    OFFSET -0.000000 33.143019 -0.000000
    CHANNELS 3 Zrotation Xrotation Yrotation
    JOINT SpineShoulder
    {
      OFFSET 0.174195 24.568031 -0.838594
      CHANNELS 3 Zrotation Xrotation Yrotation
      JOINT Neck
      {
        OFFSET 0.117178 8.117222 -0.637299
        CHANNELS 3 Zrotation Xrotation Yrotation
        JOINT Head
        {
          OFFSET 5.551842 12.813282 3.869416
          CHANNELS 3 Zrotation Xrotation Yrotation
          End Site
          {
            OFFSET 0 0 0
          }
        }
      }
      JOINT ShoulderLeft
      {
        OFFSET -9.026703 -3.174230 -11.981280
        CHANNELS 3 Zrotation Xrotation Yrotation
        JOINT ElbowLeft
        {
          OFFSET -5.693800 -20.501872 -7.188203
          CHANNELS 3 Zrotation Xrotation Yrotation
          JOINT WristLeft
          {
            OFFSET 17.790025 -13.328792 0.622997
            CHANNELS 3 Zrotation Xrotation Yrotation
            JOINT HandLeft
            {
              OFFSET 7.029890 -4.235579 4.390414
              CHANNELS 3 Zrotation Xrotation Yrotation
              JOINT HandTipLeft
              {
                OFFSET 8.969079 -3.158036 -3.967186
                CHANNELS 3 Zrotation Xrotation Yrotation
                End Site
                {
                  OFFSET 0 0 0
                }
              }
              JOINT ThumbLeft
              {
                OFFSET 0.498897 1.657291 -5.223693
                CHANNELS 3 Zrotation Xrotation Yrotation
                End Site
                {
                  OFFSET 0 0 0
                }
              }
            }
          }
        }
      }
      JOINT ShoulderRight
      {
        OFFSET 8.935901 -9.009232 17.958826
        CHANNELS 3 Zrotation Xrotation Yrotation
        JOINT ElbowRight
        {
          OFFSET -0.170555 -19.307036 2.128428
          CHANNELS 3 Zrotation Xrotation Yrotation
          JOINT WristRight
          {
            OFFSET -10.458232 19.175188 -16.849326
            CHANNELS 3 Zrotation Xrotation Yrotation
            JOINT HandRight
            {
              OFFSET -0.119173 9.427133 -10.978180
              CHANNELS 3 Zrotation Xrotation Yrotation
              JOINT HandTipRight
              {
                OFFSET -6.818951 4.648100 -2.735975
                CHANNELS 3 Zrotation Xrotation Yrotation
                End Site
                {
                  OFFSET 0 0 0
                }
              }
              JOINT ThumbRight
              {
                OFFSET 5.171366 2.414667 3.185267
                CHANNELS 3 Zrotation Xrotation Yrotation
                End Site
                {
                  OFFSET 0 0 0
                }
              }
            }
          }
        }
      }
    }
  }
  JOINT HipLeft
  {
    OFFSET -3.195656 1.834172 -8.915306
    CHANNELS 3 Zrotation Xrotation Yrotation
    JOINT KneeLeft
    {
      OFFSET -7.367832 -39.003332 -7.983859
      CHANNELS 3 Zrotation Xrotation Yrotation
      JOINT AnkleLeft
      {
        OFFSET -7.779402 -37.009192 1.416581
        CHANNELS 3 Zrotation Xrotation Yrotation
        JOINT FootLeft
        {
          OFFSET 10.020611 -4.100585 -9.216595
          CHANNELS 3 Zrotation Xrotation Yrotation
          End Site
          {
            OFFSET 0 0 0
          }
        }
      }
    }
  }
  JOINT HipRight
  {
    OFFSET 4.407788 -0.314365 1.166723
    CHANNELS 3 Zrotation Xrotation Yrotation
    JOINT KneeRight
    {
      OFFSET 0.553868 -37.935078 -1.150432
      CHANNELS 3 Zrotation Xrotation Yrotation
      JOINT AnkleRight
      {
        OFFSET -13.398706 -36.033432 9.113778
        CHANNELS 3 Zrotation Xrotation Yrotation
        JOINT FootRight
        {
          OFFSET 4.098616 -8.368156 -4.032938
          CHANNELS 3 Zrotation Xrotation Yrotation
          End Site
          {
            OFFSET 0 0 0
          }
        }
      }
    }
  }
}
MOTION
Frames: 14
Frame Time: 0.033333
-54.306368 79.705471 358.513963 -1.388401 -1.629805 -59.027030 -0.103774 -0.450703 58.961598 -0.157969 0.075485 -0.077693 -21.748118 19.591533 3.521306 0.000000 0.000000 0.000000 26.751493 5.179652 -11.731612 -19.510294 -28.196898 -16.963370 6.103202 2.424202 4.460948 -6.531773 -2.707000 -47.650334 0.000000 0.000000 0.000000 0.000000 0.000000 0.000000 -0.370139 1.188680 -0.093646 -75.293607 57.769351 57.207787 26.895795 -4.574310 -38.000407 -58.513806 -31.696878 -32.982241 0.000000 0.000000 0.000000 0.000000 0.000000 0.000000 -2.589513 1.120165 59.210862 -1.632687 -3.635393 0.124988 -28.212259 -24.774253 7.030153 0.000000 0.000000 0.000000 5.900897 0.140759 58.743664 -3.425568 8.482699 -0.635830 3.472479 -3.470577 -0.462655 0.000000 0.000000 0.000000
-54.413875 79.741720 358.287311 -1.854697 -1.894989 -57.733651 0.070097 -0.439138 57.644886 -0.142747 -0.012590 -0.089366 -22.069655 18.816341 4.258014 0.000000 0.000000 0.000000 24.110421 6.039091 -10.670867 -17.722860 -26.661057 -16.913421 8.298907 2.234294 4.538014 -10.398241 -3.396152 -47.860568 0.000000 0.000000 0.000000 0.000000 0.000000 0.000000 -1.694149 -0.766113 -0.259972 -72.737444 57.942547 56.645667 27.304848 0.838718 -27.366459 -62.723002 -26.194183 -37.582312 0.000000 0.000000 0.000000 0.000000 0.000000 0.000000 -2.986351 1.712871 57.922412 -0.771376 -4.471472 0.272487 -22.372202 -18.574010 6.177550 0.000000 0.000000 0.000000 4.091354 0.687084 57.481806 -1.664773 5.373953 -0.123463 2.246457 -1.776257 -1.045389 0.000000 0.000000 0.000000
-54.612827 80.025414 358.141808 -2.276609 -2.202783 -56.600931 0.228362 -0.373575 56.488063 -0.097903 -0.114358 -0.096250 -21.882320 17.318805 4.873675 0.000000 0.000000 0.000000 21.469697 7.100353 -9.717389 -17.366282 -24.715305 -16.390945 10.148779 0.273233 1.587432 -8.196631 -1.925208 -44.227878 0.000000 0.000000 0.000000 0.000000 0.000000 0.000000 -1.115884 -3.428961 -0.271716 -75.342654 58.456051 57.494596 27.689355 4.864243 -14.548757 -64.802490 -21.617269 -38.582964 0.000000 0.000000 0.000000 0.000000 0.000000 0.000000 -3.397449 2.575835 56.733065 -0.207607 -5.339309 0.478075 -15.823289 -11.995790 3.626376 0.000000 0.000000 0.000000 2.330646 1.894632 56.382358 -0.603863 2.115883 0.442784 1.945969 0.050946 -1.758886 0.000000 0.000000 0.000000
-54.901384 80.467531 357.999333 -2.636495 -2.553298 -56.602495 0.382495 -0.236044 56.465763 0.002915 -0.211008 -0.095575 -21.184806 15.590759 5.247332 0.000000 0.000000 0.000000 17.353483 7.882180 -7.979903 -14.857425 -21.654080 -14.966497 10.132592 -1.562421 -0.987883 -8.832921 -1.823331 -39.718409 0.000000 0.000000 0.000000 0.000000 0.000000 0.000000 3.500293 -6.949240 0.299008 -85.185318 58.829301 58.584746 27.384947 9.734358 -5.034018 -65.165004 -22.695923 -34.779131 0.000000 0.000000 0.000000 0.000000 0.000000 0.000000 -3.382218 3.368303 56.673215 -0.065034 -5.679373 0.646606 -9.436197 -6.076389 0.976964 0.000000 0.000000 0.000000 0.488343 3.361919 56.464668 0.194651 -1.152503 1.031483 2.768622 1.699188 -2.953769 0.000000 0.000000 0.000000
-55.280383 81.070016 357.922035 -2.916176 -2.858987 -56.996249 0.460028 -0.034635 56.839098 0.099472 -0.230828 -0.092078 -20.211667 13.302418 5.499703 0.000000 0.000000 0.000000 13.126287 8.291656 -6.093668 -12.890509 -18.515697 -13.552125 10.978685 -4.267429 -4.757639 -9.897935 -0.850258 -32.865588 0.000000 0.000000 0.000000 0.000000 0.000000 0.000000 10.817737 -10.097497 1.565451 -99.527659 58.205440 58.472988 26.873021 13.629934 4.631706 -65.572307 -23.204834 -30.506642 0.000000 0.000000 0.000000 0.000000 0.000000 0.000000 -2.969792 4.129615 56.969242 -0.291723 -5.548641 0.781673 -4.252866 -1.567213 -1.069583 0.000000 0.000000 0.000000 -1.105181 4.830973 56.968653 0.636309 -3.872033 1.519654 2.950793 2.485023 -3.857313 0.000000 0.000000 0.000000
-55.663036 81.785563 357.937264 -3.165666 -3.205927 -57.878067 0.462750 0.118693 57.699234 0.186183 -0.242531 -0.091823 -19.044426 11.156092 5.709703 0.000000 0.000000 0.000000 9.347251 8.639236 -4.365964 -11.615613 -15.375348 -11.746118 11.429609 -5.817027 -7.543461 -10.292407 -0.521078 -25.230047 0.000000 0.000000 0.000000 0.000000 0.000000 0.000000 19.153868 -10.969446 3.053288 -113.680561 56.827986 52.270462 25.708567 17.732791 15.288788 -68.415069 -20.021146 -28.966700 0.000000 0.000000 0.000000 0.000000 0.000000 0.000000 -2.574216 4.738593 57.776747 -0.470728 -5.211132 0.864884 -0.605576 1.447180 -2.778250 0.000000 0.000000 0.000000 -2.907166 6.034538 58.023000 1.297813 -6.560653 2.049788 2.246197 3.152877 -4.377755 0.000000 0.000000 0.000000
-56.017152 82.333025 357.970956 -3.349156 -3.439538 -58.998282 0.341681 0.346497 58.806370 0.237608 -0.188994 -0.091341 -17.861591 8.731488 5.840007 0.000000 0.000000 0.000000 5.325428 8.630311 -2.501406 -9.490616 -12.326878 -9.601184 11.882453 -7.147189 -9.445556 -8.632665 -0.144544 -21.392790 0.000000 0.000000 0.000000 0.000000 0.000000 0.000000 27.927957 -11.056150 4.642960 -125.269610 55.468905 37.911132 22.443198 22.524031 25.462192 -72.471025 -15.672975 -29.007152 0.000000 0.000000 0.000000 0.000000 0.000000 0.000000 -1.906078 5.085107 58.846048 -0.690264 -4.394668 0.854027 1.271511 3.141636 -3.055418 0.000000 0.000000 0.000000 -4.318569 6.781000 59.302498 1.837435 -8.376879 2.408557 2.384146 4.468937 -4.565944 0.000000 0.000000 0.000000
-56.342115 82.713194 358.009057 -3.504165 -3.524530 -59.399407 0.176488 0.538514 59.201082 0.218156 -0.052573 -0.095283 -16.166287 5.640805 5.918496 0.000000 0.000000 0.000000 1.780047 8.104902 -0.773132 -6.636249 -9.885727 -7.948793 11.627627 -7.156614 -9.341094 -7.082663 -0.090534 -18.232525 0.000000 0.000000 0.000000 0.000000 0.000000 0.000000 36.006233 -9.934478 5.876623 -130.473907 54.289955 14.187615 16.705011 26.608714 32.785203 -76.547187 -12.445267 -29.991471 0.000000 0.000000 0.000000 0.000000 0.000000 0.000000 -1.247919 4.809610 59.343971 -0.408217 -3.269517 0.658949 1.326292 3.509555 -2.045951 0.000000 0.000000 0.000000 -4.864127 6.967594 59.775297 2.410169 -8.882693 2.571563 1.535333 4.485382 -4.423686 0.000000 0.000000 0.000000
-56.605871 82.998437 358.048580 -3.654110 -3.481672 -59.224175 -0.039516 0.714997 59.025647 0.124346 0.085348 -0.105292 -14.529686 2.298956 6.127556 0.000000 0.000000 0.000000 -0.896819 6.824798 0.695921 -1.885708 -8.347710 -7.480257 8.575978 -4.979363 -6.679700 -4.349834 -1.099076 -18.429516 0.000000 0.000000 0.000000 0.000000 0.000000 0.000000 42.209113 -7.506038 6.288486 -128.706755 51.936602 -14.699325 13.900471 25.704896 30.523879 -78.089960 -15.779754 -25.988012 0.000000 0.000000 0.000000 0.000000 0.000000 0.000000 -0.109534 5.545749 58.955581 -1.073065 -2.505311 0.756678 -1.065037 2.447019 0.472126 0.000000 0.000000 0.000000 -4.797609 6.707707 59.603148 3.052483 -8.626911 2.625985 -0.191042 3.555684 -4.079003 0.000000 0.000000 0.000000
-56.804826 83.089021 358.078938 -3.721425 -3.328306 -58.330401 -0.243471 0.782195 58.139097 -0.014461 0.233748 -0.118554 -13.141084 -0.482765 6.327528 0.000000 0.000000 0.000000 -2.540205 5.399382 1.694944 0.361584 -6.275368 -6.421891 8.401399 -3.417008 -3.623414 -4.325130 -2.617527 -19.464135 0.000000 0.000000 0.000000 0.000000 0.000000 0.000000 45.743898 -3.936345 5.673225 -124.182911 48.150029 -40.793538 17.641367 19.222236 20.898585 -69.599903 -18.684854 -21.786548 0.000000 0.000000 0.000000 0.000000 0.000000 0.000000 0.575460 5.578064 58.021136 -1.041646 -1.841878 0.700523 -1.542548 2.571035 2.057293 0.000000 0.000000 0.000000 -4.308323 6.286332 58.666634 3.532836 -7.956590 2.586163 -2.101282 2.237069 -3.691273 0.000000 0.000000 0.000000
-57.016352 83.158080 358.050790 -3.870244 -2.946010 -56.775083 -0.327106 0.830598 56.590625 -0.137694 0.315868 -0.135257 -11.848628 -2.900844 6.492216 0.000000 0.000000 0.000000 -3.854032 3.530935 2.597969 2.999272 -4.242933 -5.844099 8.151967 -1.298960 0.720119 -4.915342 -4.159835 -21.404402 0.000000 0.000000 0.000000 0.000000 0.000000 0.000000 45.590698 -3.183103 5.575260 -118.564702 40.668676 -57.010288 13.957422 20.227697 25.018885 -60.845650 -10.633366 -31.316137 0.000000 0.000000 0.000000 0.000000 0.000000 0.000000 1.770702 5.576133 56.392726 -1.247936 -1.026656 0.644713 -1.969828 2.716645 3.769776 0.000000 0.000000 0.000000 -3.503023 5.885904 57.058632 3.974542 -7.372616 2.578742 -3.217704 1.620942 -3.457748 0.000000 0.000000 0.000000
-57.191071 83.153608 357.975852 -4.003228 -2.405852 -54.624150 -0.382253 0.784913 54.450029 -0.269918 0.359982 -0.157109 -10.316206 -5.575958 6.735183 0.000000 0.000000 0.000000 -4.857126 1.544780 3.364591 5.045580 -1.988156 -5.105339 7.487993 0.274340 3.642640 -5.356945 -6.297466 -24.875226 0.000000 0.000000 0.000000 0.000000 0.000000 0.000000 45.504090 -3.748088 6.011857 -115.769735 35.067792 -62.427620 9.946234 21.412697 27.951214 -53.079311 -6.245298 -40.891001 0.000000 0.000000 0.000000 0.000000 0.000000 0.000000 3.034459 5.406525 54.174387 -1.475946 -0.356611 0.605064 -2.333503 2.890922 5.420197 0.000000 0.000000 0.000000 -2.357137 5.381924 54.831098 4.199698 -6.626563 2.520083 -4.450029 0.495949 -3.360639 0.000000 0.000000 0.000000
-57.326023 83.153050 357.970096 -4.118991 -1.913096 -53.001050 -0.347681 0.741698 52.835112 -0.279862 0.316487 -0.169335 -9.400958 -7.179374 6.884381 0.000000 0.000000 0.000000 -5.299663 0.058784 3.768892 5.070796 0.313734 -3.861818 7.175941 0.668008 4.034461 -0.595999 -6.990124 -25.428426 0.000000 0.000000 0.000000 0.000000 0.000000 0.000000 45.781757 -4.661882 6.562088 -116.380280 36.600237 -58.945380 12.353124 20.846427 26.502456 -49.110228 -6.211537 -43.988564 0.000000 0.000000 0.000000 0.000000 0.000000 0.000000 4.002364 5.198370 52.508380 -1.680039 0.137652 0.569788 -2.526366 2.892810 6.381329 0.000000 0.000000 0.000000 -1.441063 5.236050 53.156507 4.001848 -6.257157 2.450888 -5.083315 -0.161470 -3.268592 0.000000 0.000000 0.000000
-57.442549 83.112236 357.980290 -4.162278 -1.480566 -51.354269 -0.231309 0.620949 51.194029 -0.226921 0.198474 -0.174544 -8.816388 -7.839121 6.905946 0.000000 0.000000 0.000000 -6.036202 -1.116038 4.218635 6.127140 2.175559 -3.035703 5.697972 1.341195 4.396586 2.212747 -7.536286 -23.803662 0.000000 0.000000 0.000000 0.000000 0.000000 0.000000 48.159853 -5.103386 7.201466 -119.417192 38.445886 -54.834377 7.233166 22.963876 28.809071 -54.941339 -10.403756 -39.115833 0.000000 0.000000 0.000000 0.000000 0.000000 0.000000 4.809114 5.003781 50.808730 -1.962794 0.441744 0.577609 -2.678372 3.013426 7.417380 0.000000 0.000000 0.000000 -0.840027 5.035689 51.488044 3.961320 -6.289896 2.490941 -4.854915 -0.064354 -3.423189 0.000000 0.000000 0.000000
